HIERARCHY
ROOT hip
{
  OFFSET 0 0 0
  CHANNELS 6 Xposition Yposition Zposition Zrotation Yrotation Xrotation
  JOINT abdomen
  {
    OFFSET 0 20.6881 -0.73152
    CHANNELS 3 Zrotation Xrotation Yrotation
    JOINT chest
    {
      OFFSET 0 11.7043 -0.48768
      CHANNELS 3 Zrotation Xrotation Yrotation
      JOINT neck
      {
        OFFSET 0 22.1894 -2.19456
        CHANNELS 3 Zrotation Xrotation Yrotation
        JOINT head
        {
          OFFSET -0.24384 7.07133 1.2192
          CHANNELS 3 Zrotation Xrotation Yrotation
          JOINT leftEye
          {
            OFFSET 4.14528 8.04674 8.04672
            CHANNELS 3 Zrotation Xrotation Yrotation
            End Site
            {
              OFFSET 1 0 0
            }
          }
          JOINT rightEye
          {
            OFFSET -3.6576 8.04674 8.04672
            CHANNELS 3 Zrotation Xrotation Yrotation
            End Site
            {
              OFFSET 1 0 0
            }
          }
        }
      }
      JOINT rCollar
      {
        OFFSET -2.68224 19.2634 -4.8768
        CHANNELS 3 Zrotation Xrotation Yrotation
        JOINT rShldr
        {
          OFFSET -8.77824 -1.95073 1.46304
          CHANNELS 3 Zrotation Xrotation Yrotation
          JOINT rForeArm
          {
            OFFSET -28.1742 -1.7115 0.48768
            CHANNELS 3 Zrotation Xrotation Yrotation
            JOINT rHand
            {
              OFFSET -22.5879 0.773209 7.07136
              CHANNELS 3 Zrotation Xrotation Yrotation
              JOINT rThumb1
              {
                OFFSET -1.2192 -0.487915 3.41376
                CHANNELS 3 Zrotation Xrotation Yrotation
                JOINT rThumb2
                {
                  OFFSET -3.37035 -0.52449 3.41376
                  CHANNELS 3 Zrotation Xrotation Yrotation
                  End Site
                  {
                    OFFSET -1.78271 -1.18214 1.43049
                  }
                }
              }
              JOINT rIndex1
              {
                OFFSET -7.75947 0.938293 5.60832
                CHANNELS 3 Zrotation Xrotation Yrotation
                JOINT rIndex2
                {
                  OFFSET -2.54057 -0.884171 1.56538
                  CHANNELS 3 Zrotation Xrotation Yrotation
                  End Site
                  {
                    OFFSET -1.62519 -0.234802 1.16502
                  }
                }
              }
              JOINT rMid1
              {
                OFFSET -8.24714 1.18213 3.41376
                CHANNELS 3 Zrotation Xrotation Yrotation
                JOINT rMid2
                {
                  OFFSET -3.10165 -0.590103 1.0647
                  CHANNELS 3 Zrotation Xrotation Yrotation
                  End Site
                  {
                    OFFSET -2.48547 -0.328903 0.83742
                  }
                }
              }
              JOINT rRing1
              {
                OFFSET -8.82822 0.546677 1.51678
                CHANNELS 3 Zrotation Xrotation Yrotation
                JOINT rRing2
                {
                  OFFSET -2.60934 -0.819778 -0.0198488
                  CHANNELS 3 Zrotation Xrotation Yrotation
                  End Site
                  {
                    OFFSET -2.33842 -0.294052 0.168128
                  }
                }
              }
              JOINT rPinky1
              {
                OFFSET -8.27202 -0.0477905 -0.4584
                CHANNELS 3 Zrotation Xrotation Yrotation
                JOINT rPinky2
                {
                  OFFSET -1.82734 -0.647385 -0.700984
                  CHANNELS 3 Zrotation Xrotation Yrotation
                  End Site
                  {
                    OFFSET -1.69225 -0.51767 -0.607171
                  }
                }
              }
            }
          }
        }
      }
      JOINT lCollar
      {
        OFFSET 2.68224 19.2634 -4.8768
        CHANNELS 3 Zrotation Xrotation Yrotation
        JOINT lShldr
        {
          OFFSET 8.77824 -1.95073 1.46304
          CHANNELS 3 Zrotation Xrotation Yrotation
          JOINT lForeArm
          {
            OFFSET 28.1742 -1.7115 0.48768
            CHANNELS 3 Zrotation Xrotation Yrotation
            JOINT lHand
            {
              OFFSET 22.5879 0.773209 7.07136
              CHANNELS 3 Zrotation Xrotation Yrotation
              JOINT lThumb1
              {
                OFFSET 1.2192 -0.487915 3.41376
                CHANNELS 3 Zrotation Xrotation Yrotation
                JOINT lThumb2
                {
                  OFFSET 3.37035 -0.52449 3.41376
                  CHANNELS 3 Zrotation Xrotation Yrotation
                  End Site
                  {
                    OFFSET 1.78271 -1.18214 1.43049
                  }
                }
              }
              JOINT lIndex1
              {
                OFFSET 7.75947 0.938293 5.60832
                CHANNELS 3 Zrotation Xrotation Yrotation
                JOINT lIndex2
                {
                  OFFSET 2.54057 -0.884171 1.56538
                  CHANNELS 3 Zrotation Xrotation Yrotation
                  End Site
                  {
                    OFFSET 1.62519 -0.234802 1.16502
                  }
                }
              }
              JOINT lMid1
              {
                OFFSET 8.24714 1.18213 3.41376
                CHANNELS 3 Zrotation Xrotation Yrotation
                JOINT lMid2
                {
                  OFFSET 3.10165 -0.590103 1.0647
                  CHANNELS 3 Zrotation Xrotation Yrotation
                  End Site
                  {
                    OFFSET 2.48547 -0.328903 0.83742
                  }
                }
              }
              JOINT lRing1
              {
                OFFSET 8.82822 0.546677 1.51678
                CHANNELS 3 Zrotation Xrotation Yrotation
                JOINT lRing2
                {
                  OFFSET 2.60934 -0.819778 -0.0198488
                  CHANNELS 3 Zrotation Xrotation Yrotation
                  End Site
                  {
                    OFFSET 2.33842 -0.294052 0.168128
                  }
                }
              }
              JOINT lPinky1
              {
                OFFSET 8.27202 -0.0477905 -0.4584
                CHANNELS 3 Zrotation Xrotation Yrotation
                JOINT lPinky2
                {
                  OFFSET 1.82734 -0.647385 -0.700984
                  CHANNELS 3 Zrotation Xrotation Yrotation
                  End Site
                  {
                    OFFSET 1.69225 -0.51767 -0.607171
                  }
                }
              }
            }
          }
        }
      }
    }
  }
  JOINT rButtock
  {
    OFFSET -8.77824 4.35084 1.2192
    CHANNELS 3 Zrotation Xrotation Yrotation
    JOINT rThigh
    {
      OFFSET 0 -1.70687 -2.19456
      CHANNELS 3 Zrotation Xrotation Yrotation
      JOINT rShin
      {
        OFFSET 0 -36.8199 0.73152
        CHANNELS 3 Zrotation Xrotation Yrotation
        JOINT rFoot
        {
          OFFSET 0.73152 -45.1104 -5.12064
          CHANNELS 3 Zrotation Xrotation Yrotation
          End Site
          {
            OFFSET -1.1221 -3.69964 12.103
          }
        }
      }
    }
  }
  JOINT lButtock
  {
    OFFSET 8.77824 4.35084 1.2192
    CHANNELS 3 Zrotation Xrotation Yrotation
    JOINT lThigh
    {
      OFFSET 0 -1.70687 -2.19456
      CHANNELS 3 Zrotation Xrotation Yrotation
      JOINT lShin
      {
        OFFSET 0 -36.8199 0.73152
        CHANNELS 3 Zrotation Xrotation Yrotation
        JOINT lFoot
        {
          OFFSET -0.73152 -45.1104 -5.12064
          CHANNELS 3 Zrotation Xrotation Yrotation
          End Site
          {
            OFFSET 1.1221 -3.69964 12.103
          }
        }
      }
    }
  }
}
MOTION
Frames:	4
Frame Time:	0.00833333
-33.5002 83.4774 27.7153 -93.4482 -82.6482 101.233 3.12104 -3.92982 12.1243 -0.619449 -0.30028 3.34455 -6.52437 -0.587933 -3.63616 17.9087 -10.0384 -4.04179 -0.0 0.0 0.0 -0.0 0.0 0.0 4.12109e-13 2.56879e-12 6.5425e-14 78.817 -1.41894 0.204248 -6.77081 -2.39649 11.874 -2.25956 38.7288 6.46081 -9.29089e-09 -4.64644e-09 -3.22059e-11 -1.5999e-08 -8.09628e-09 2.33137e-10 -9.29087e-09 -4.64643e-09 -3.2221e-11 7.73091 5.47488 0.417314 -9.29089e-09 -4.64644e-09 -3.22058e-11 2.90554 0.965183 0.102902 -9.29088e-09 -4.64643e-09 -3.22109e-11 10.2786 0.731801 0.0259123 -9.29089e-09 -4.64643e-09 -3.21998e-11 2.22167 -0.733487 -0.20892 4.12073e-13 2.56879e-12 6.51734e-14 -73.395 -0.0879327 7.72034 13.9773 -6.93607 -25.5085 0.810331 24.6797 -3.70282 -2.81533e-09 -4.98011e-09 -6.93626e-09 -4.99091e-09 -8.47623e-09 -1.19199e-08 -2.81533e-09 -4.98011e-09 -6.93625e-09 -7.73091 5.47488 -0.417314 -2.81532e-09 -4.9801e-09 -6.93627e-09 -2.90554 0.965183 -0.102902 -2.81533e-09 -4.98011e-09 -6.93626e-09 -10.2786 0.731801 -0.0259123 -2.81533e-09 -4.98011e-09 -6.93626e-09 -2.22167 -0.733487 0.20892 -2.03217e-16 0.0 -3.88251e-19 12.2981 -4.99809 1.3941 -0.198509 28.6302 0.315457 -0.125342 -0.796306 3.82462 2.03217e-16 0.0 3.88251e-19 9.05244 -36.1553 -9.6225 0.0832942 20.5092 0.1301 0.595402 -0.123301 3.92692
-34.5034 83.4229 27.7827 -97.6907 -82.7745 105.379 2.88759 -3.89825 11.8207 -0.530118 -0.272892 3.2568 -6.29594 -0.631006 -3.36128 17.6705 -9.84358 -3.60527 -0.0 0.0 0.0 -0.0 0.0 0.0 2.90096e-13 1.81414e-12 4.59239e-14 79.0386 -5.47549 -1.48799 -6.41266 -2.23161 11.2253 -2.73878 41.7454 7.19789 -9.58528e-09 -5.5169e-09 1.62084e-09 -1.64501e-08 -9.59668e-09 3.11471e-09 -9.58526e-09 -5.51689e-09 1.62083e-09 7.73091 5.47488 0.417314 -9.58528e-09 -5.5169e-09 1.62084e-09 2.90554 0.965183 0.102902 -9.58527e-09 -5.5169e-09 1.62084e-09 10.2786 0.731801 0.0259123 -9.58529e-09 -5.5169e-09 1.62085e-09 2.22167 -0.733487 -0.20892 2.90109e-13 1.81414e-12 4.56401e-14 -72.8739 -0.694423 7.47203 13.9428 -6.90828 -25.4392 0.826739 24.9082 -3.74189 -1.6091e-09 -5.3899e-09 -7.04965e-09 -2.91101e-09 -9.20988e-09 -1.21407e-08 -1.6091e-09 -5.38989e-09 -7.04964e-09 -7.73091 5.47488 -0.417314 -1.60909e-09 -5.3899e-09 -7.04966e-09 -2.90554 0.965183 -0.102902 -1.6091e-09 -5.3899e-09 -7.04965e-09 -10.2786 0.731801 -0.0259123 -1.6091e-09 -5.3899e-09 -7.04965e-09 -2.22167 -0.733487 0.20892 -2.03217e-16 0.0 -3.88251e-19 11.7417 -5.41137 1.30171 -0.21573 30.0695 0.336909 -0.170247 0.379651 4.13843 2.03217e-16 0.0 3.88251e-19 8.66268 -35.8611 -9.86335 0.083594 20.6311 0.140553 0.571403 -0.0221835 3.88481
-35.508 83.3743 27.8515 -101.997 -82.8721 109.581 2.6491 -3.85825 11.5097 -0.442407 -0.246478 3.16697 -6.06688 -0.667131 -3.08731 17.4264 -9.64844 -3.17158 -0.0 0.0 0.0 -0.0 0.0 0.0 1.88435e-13 1.17541e-12 2.87741e-14 78.9998 -9.31755 -3.17942 -6.1097 -2.09284 10.6821 -3.25858 44.5334 7.94778 -8.60781e-09 -5.34225e-09 2.37351e-09 -1.47446e-08 -9.28243e-09 4.38927e-09 -8.60779e-09 -5.34224e-09 2.3735e-09 7.73091 5.47488 0.417314 -8.60781e-09 -5.34225e-09 2.3735e-09 2.90554 0.965183 0.102902 -8.60781e-09 -5.34225e-09 2.37351e-09 10.2786 0.731801 0.0259123 -8.60782e-09 -5.34225e-09 2.37351e-09 2.22167 -0.733487 -0.20892 1.88473e-13 1.17541e-12 2.84759e-14 -72.3694 -1.32757 7.22012 13.9015 -6.87522 -25.3562 0.844751 25.1571 -3.78455 -6.74351e-10 -4.88116e-09 -6.20382e-09 -1.28078e-09 -8.36096e-09 -1.06996e-08 -6.74351e-10 -4.88116e-09 -6.20382e-09 -7.73091 5.47488 -0.417314 -6.74344e-10 -4.88117e-09 -6.20383e-09 -2.90554 0.965183 -0.102902 -6.74353e-10 -4.88116e-09 -6.20383e-09 -10.2786 0.731801 -0.0259123 -6.74348e-10 -4.88116e-09 -6.20382e-09 -2.22167 -0.733487 0.20892 -2.03217e-16 0.0 -3.88251e-19 11.1714 -5.88936 1.20474 -0.234604 31.5504 0.360787 -0.235098 1.59297 4.36266 2.03217e-16 0.0 3.88251e-19 8.26368 -35.5395 -10.0622 0.0840117 20.8006 0.148687 0.548312 0.0524639 3.81577
-36.514 83.3398 27.9217 -106.342 -82.9414 113.813 2.40534 -3.80956 11.1913 -0.356481 -0.220334 3.07502 -5.83699 -0.695882 -2.81402 17.1766 -9.45284 -2.74049 -0.0 0.0 0.0 -0.0 0.0 0.0 1.10323e-13 7.08289e-13 1.57906e-14 78.7182 -13.0101 -4.90268 -5.87151 -1.98432 10.2589 -3.81124 47.1624 8.71616 -5.26287e-09 -3.28882e-09 1.62497e-09 -9.02019e-09 -5.70419e-09 2.97605e-09 -5.26285e-09 -3.28881e-09 1.62496e-09 7.73091 5.47488 0.417314 -5.26286e-09 -3.28881e-09 1.62497e-09 2.90554 0.965183 0.102902 -5.26286e-09 -3.28881e-09 1.62497e-09 10.2786 0.731801 0.0259123 -5.26287e-09 -3.28881e-09 1.62498e-09 2.22167 -0.733487 -0.20892 1.10349e-13 7.08288e-13 1.55044e-14 -71.8803 -1.99602 6.9656 13.8523 -6.83592 -25.2573 0.864764 25.4297 -3.83151 -5.59356e-11 -2.66719e-09 -3.52878e-09 -1.60205e-10 -4.57924e-09 -6.09349e-09 -5.59369e-11 -2.66718e-09 -3.52877e-09 -7.73091 5.47488 -0.417314 -5.59296e-11 -2.66719e-09 -3.52879e-09 -2.90554 0.965183 -0.102902 -5.59391e-11 -2.66719e-09 -3.52878e-09 -10.2786 0.731801 -0.0259123 -5.59318e-11 -2.66719e-09 -3.52878e-09 -2.22167 -0.733487 0.20892 -2.03217e-16 0.0 -3.88251e-19 10.5842 -6.43386 1.10337 -0.255506 33.082 0.387745 -0.315822 2.86315 4.49079 2.03217e-16 0.0 3.88251e-19 7.8527 -35.1908 -10.2167 0.0846082 21.027 0.15441 0.525594 0.101049 3.71507
